<svg width="64" height="36" viewBox="0 0 64 36" fill="none" xmlns="http://www.w3.org/2000/svg">
<path d="M0.59375 21.8665V16.8665L20.5938 8.05966V13.8125L6.90057 19.3097L7.08523 19.0114V19.7216L6.90057 19.4233L20.5938 24.9205V30.6733L0.59375 21.8665ZM39.2727 0.545453L29.8977 35.375H24.6847L34.0597 0.545453H39.2727ZM63.3672 21.8665L43.3672 30.6733V24.9205L57.0604 19.4233L56.8757 19.7216V19.0114L57.0604 19.3097L43.3672 13.8125V8.05966L63.3672 16.8665V21.8665Z" fill="#222222"/>
<path d="M0.59375 21.8665H-0.90625C-0.90625 22.4611 -0.554974 22.9996 -0.01075 23.2393L0.59375 21.8665ZM0.59375 16.8665L-0.01075 15.4937C-0.554974 15.7333 -0.90625 16.2718 -0.90625 16.8665H0.59375ZM20.5938 8.05966H22.0938C22.0938 7.55281 21.8378 7.08024 21.4133 6.80332C20.9888 6.52641 20.4531 6.4826 19.9892 6.68686L20.5938 8.05966ZM20.5938 13.8125L21.1526 15.2045C21.7211 14.9763 22.0938 14.4252 22.0938 13.8125H20.5938ZM6.90057 19.3097L5.62517 18.5201C5.28406 19.0712 5.3354 19.7789 5.75246 20.275C6.16952 20.771 6.85798 20.9431 7.4594 20.7017L6.90057 19.3097ZM7.08523 19.0114H8.58523C8.58523 18.341 8.14043 17.752 7.49566 17.5686C6.85088 17.3852 6.16268 17.6519 5.80983 18.2218L7.08523 19.0114ZM7.08523 19.7216L5.80983 20.5111C6.16268 21.0811 6.85088 21.3478 7.49566 21.1643C8.14043 20.9809 8.58523 20.3919 8.58523 19.7216H7.08523ZM6.90057 19.4233L7.4594 18.0313C6.85798 17.7898 6.16952 17.9619 5.75246 18.458C5.3354 18.954 5.28406 19.6618 5.62517 20.2128L6.90057 19.4233ZM20.5938 24.9205H22.0938C22.0938 24.3078 21.7211 23.7567 21.1526 23.5284L20.5938 24.9205ZM20.5938 30.6733L19.9892 32.0461C20.4531 32.2504 20.9888 32.2065 21.4133 31.9296C21.8378 31.6527 22.0938 31.1801 22.0938 30.6733H20.5938ZM2.09375 21.8665V16.8665H-0.90625V21.8665H2.09375ZM1.19825 18.2393L21.1983 9.43246L19.9892 6.68686L-0.01075 15.4937L1.19825 18.2393ZM19.0938 8.05966V13.8125H22.0938V8.05966H19.0938ZM20.0349 12.4205L6.34174 17.9176L7.4594 20.7017L21.1526 15.2045L20.0349 12.4205ZM8.17597 20.0992L8.36063 19.8009L5.80983 18.2218L5.62517 18.5201L8.17597 20.0992ZM5.58523 19.0114V19.7216H8.58523V19.0114H5.58523ZM8.36063 18.9321L8.17597 18.6338L5.62517 20.2128L5.80983 20.5111L8.36063 18.9321ZM6.34174 20.8153L20.0349 26.3125L21.1526 23.5284L7.4594 18.0313L6.34174 20.8153ZM19.0938 24.9205V30.6733H22.0938V24.9205H19.0938ZM21.1983 29.3005L1.19825 20.4937L-0.01075 23.2393L19.9892 32.0461L21.1983 29.3005ZM39.2727 0.545453L40.7212 0.935328C40.8425 0.484732 40.7471 0.00335429 40.4633 -0.367013C40.1794 -0.73738 39.7394 -0.954547 39.2727 -0.954547V0.545453ZM29.8977 35.375V36.875C30.576 36.875 31.1699 36.4198 31.3462 35.7649L29.8977 35.375ZM24.6847 35.375L23.2362 34.9851C23.1149 35.4357 23.2103 35.9171 23.4941 36.2875C23.778 36.6578 24.218 36.875 24.6847 36.875V35.375ZM34.0597 0.545453V-0.954547C33.3814 -0.954547 32.7875 -0.499386 32.6112 0.155577L34.0597 0.545453ZM37.8243 0.155577L28.4493 34.9851L31.3462 35.7649L40.7212 0.935328L37.8243 0.155577ZM29.8977 33.875H24.6847V36.875H29.8977V33.875ZM26.1331 35.7649L35.5081 0.935328L32.6112 0.155577L23.2362 34.9851L26.1331 35.7649ZM34.0597 2.04545H39.2727V-0.954547H34.0597V2.04545ZM63.3672 21.8665L63.9717 23.2393C64.5159 22.9996 64.8672 22.4611 64.8672 21.8665H63.3672ZM43.3672 30.6733H41.8672C41.8672 31.1801 42.1231 31.6527 42.5477 31.9296C42.9722 32.2065 43.5078 32.2504 43.9717 32.0461L43.3672 30.6733ZM43.3672 24.9205L42.8084 23.5284C42.2398 23.7567 41.8672 24.3078 41.8672 24.9205H43.3672ZM57.0604 19.4233L58.3358 20.2128C58.6769 19.6618 58.6255 18.954 58.2085 18.458C57.7914 17.9619 57.103 17.7898 56.5015 18.0313L57.0604 19.4233ZM56.8757 19.7216H55.3757C55.3757 20.3919 55.8205 20.9809 56.4653 21.1643C57.1101 21.3478 57.7983 21.0811 58.1511 20.5111L56.8757 19.7216ZM56.8757 19.0114L58.1511 18.2218C57.7983 17.6519 57.1101 17.3852 56.4653 17.5686C55.8205 17.752 55.3757 18.341 55.3757 19.0114H56.8757ZM57.0604 19.3097L56.5015 20.7017C57.103 20.9431 57.7914 20.771 58.2085 20.275C58.6255 19.7789 58.6769 19.0712 58.3358 18.5201L57.0604 19.3097ZM43.3672 13.8125H41.8672C41.8672 14.4252 42.2398 14.9763 42.8084 15.2045L43.3672 13.8125ZM43.3672 8.05966L43.9717 6.68686C43.5078 6.4826 42.9722 6.52641 42.5477 6.80332C42.1231 7.08024 41.8672 7.55281 41.8672 8.05966H43.3672ZM63.3672 16.8665H64.8672C64.8672 16.2718 64.5159 15.7333 63.9717 15.4937L63.3672 16.8665ZM62.7627 20.4937L42.7627 29.3005L43.9717 32.0461L63.9717 23.2393L62.7627 20.4937ZM44.8672 30.6733V24.9205H41.8672V30.6733H44.8672ZM43.926 26.3125L57.6192 20.8153L56.5015 18.0313L42.8084 23.5284L43.926 26.3125ZM55.785 18.6338L55.6003 18.9321L58.1511 20.5111L58.3358 20.2128L55.785 18.6338ZM58.3757 19.7216V19.0114H55.3757V19.7216H58.3757ZM55.6003 19.8009L55.785 20.0992L58.3358 18.5201L58.1511 18.2218L55.6003 19.8009ZM57.6192 17.9176L43.926 12.4205L42.8084 15.2045L56.5015 20.7017L57.6192 17.9176ZM44.8672 13.8125V8.05966H41.8672V13.8125H44.8672ZM42.7627 9.43246L62.7627 18.2393L63.9717 15.4937L43.9717 6.68686L42.7627 9.43246ZM61.8672 16.8665V21.8665H64.8672V16.8665H61.8672Z" fill="white"/>
</svg>
